<svg width="32" height="26" viewBox="0 0 32 26" fill="none" xmlns="http://www.w3.org/2000/svg">
<path d="M1.53947 8.45684C1.53951 12.4855 0.13176 19.2665 1.86393 18.6053C4.72353 17.5138 2.09668 12.266 5.15988 12.4855C7.87178 12.6798 6.07973 17.967 8.78029 18.2767C11.7096 18.6127 10.5188 12.9155 13.4351 12.4855C15.586 12.1684 16.4318 14.516 18.6071 14.4999C21.2269 14.4804 21.9421 11.2918 24.5549 11.4783C28.3836 11.7517 26.4318 19.7234 30.2442 19.2839C31.234 19.1698 30.2442 13.2408 30.2442 8.45684C30.2442 6.69425 29.9856 5.93893 27.6582 5.93892H4.12548C2.31534 5.93892 1.53947 6.94604 1.53947 8.45684Z" stroke="#ABABAB" stroke-width="2"/>
<path d="M10.4478 3.95927V0M15.3968 3.95927V0M20.0985 3.95927V0" stroke="#ABABAB" stroke-width="2"/>
<path d="M2.28174 18.3116C2.28173 19.054 2.28175 22.7658 2.28174 23.5082C2.58628 24.2695 3.15328 24.4485 3.76646 24.9929C10.6952 24.9929 20.5933 24.9929 28.2644 24.9929C29.0903 24.9929 29.0068 24.2505 29.0068 23.5082C29.0068 22.1532 29.0068 19.7963 29.0068 18.8065" stroke="#ABABAB" stroke-width="2"/>
</svg>
