<svg width="196" height="148" viewBox="0 0 196 148" fill="none" xmlns="http://www.w3.org/2000/svg">
<path d="M96.2391 49.0722L194.762 2L153.3 89.8499L96.2391 49.0722L38.4936 89.4394L1 2L96.2391 49.0722Z" fill="#E36205"/>
<path d="M96.2391 49.0722L194.762 2L153.3 89.8499L96.2391 49.0722ZM96.2391 49.0722L1 2L38.4936 89.4394L96.2391 49.0722Z" stroke="#E36205"/>
<path d="M72.1557 65.3559L1.27368 2.27368L39.0409 88.6183L72.1557 65.3559Z" fill="#F3EFF5" stroke="#F3EFF5"/>
<path d="M193.941 2.82103L123.059 67.5453L153.027 88.071L193.941 2.82103Z" fill="#F3EFF5" stroke="#F3EFF5"/>
<path d="M38.0495 89.1992L96.1049 48.388L154.16 89.1992L96.1049 135.691L38.0495 89.1992Z" fill="#FC7703"/>
<path d="M104.449 128.849H87.7552L96.1023 135.417L104.449 128.849Z" fill="#22181C" stroke="#22181C"/>
<path d="M68.1873 100.25L58.6087 97.3759L61.756 100.25H68.1873Z" fill="#22181C" stroke="#22181C"/>
<path d="M123.47 100.113L133.048 97.3759L129.901 100.113H123.47Z" fill="#22181C" stroke="#22181C"/>
</svg>
